<?xml version="1.0" standalone="no"?>
<!DOCTYPE svg PUBLIC "-//W3C//DTD SVG 20010904//EN"
 "http://www.w3.org/TR/2001/REC-SVG-20010904/DTD/svg10.dtd">
<svg version="1.0" xmlns="http://www.w3.org/2000/svg"
 width="840.000000pt" height="879.000000pt" viewBox="0 0 840.000000 879.000000"
 preserveAspectRatio="xMidYMid meet">

<g transform="translate(0.000000,879.000000) scale(0.100000,-0.100000)"
fill="#ffffff" stroke="none">
<path d="M4150 8381 c-14 -4 -40 -15 -57 -25 -32 -16 -231 -223 -2428 -2521
-600 -627 -1163 -1216 -1252 -1309 -89 -93 -170 -186 -180 -205 -9 -20 -19
-62 -21 -94 -14 -190 187 -324 357 -238 21 11 118 103 219 208 l182 188 0
-1881 c0 -2111 -6 -1949 74 -2028 79 -80 24 -76 1046 -76 1022 0 967 -4 1046
76 78 77 74 13 75 1208 1 584 4 1151 8 1261 l6 200 815 1 c448 1 893 -1 988
-3 l172 -6 0 -1266 c1 -1031 3 -1273 14 -1304 20 -55 61 -103 114 -134 l47
-28 920 -3 c686 -2 931 0 963 9 55 15 134 86 158 141 18 41 19 118 24 1936 l5
1894 170 -181 c198 -210 235 -236 335 -235 99 0 182 52 226 141 29 59 26 166
-6 220 -23 38 -155 179 -896 958 -120 127 -475 500 -789 830 -313 330 -617
649 -675 710 -58 61 -323 340 -590 620 -834 878 -851 895 -893 917 -44 22
-137 32 -177 19z m306 -856 c110 -115 550 -579 979 -1030 428 -451 905 -953
1059 -1115 154 -162 319 -335 366 -383 47 -49 85 -95 84 -103 0 -8 -1 -909 -2
-2004 l-2 -1990 -620 0 -620 0 0 1258 c0 1398 3 1325 -66 1402 -19 21 -54 48
-78 59 -42 21 -50 21 -1344 21 -1083 0 -1308 -2 -1336 -14 -51 -21 -107 -76
-132 -131 l-24 -50 0 -485 c0 -267 -3 -839 -7 -1272 l-6 -788 -619 0 -618 0
-2 1985 c-1 1092 -2 1993 -2 2004 -1 11 82 105 209 237 332 346 610 636 1210
1264 307 322 654 684 770 805 116 121 289 302 385 403 l174 182 22 -22 c11
-13 111 -117 220 -233z"/>
</g>
</svg>
