<?xml version="1.0" standalone="no"?>
<!DOCTYPE svg PUBLIC "-//W3C//DTD SVG 20010904//EN"
 "http://www.w3.org/TR/2001/REC-SVG-20010904/DTD/svg10.dtd">
<svg version="1.0" xmlns="http://www.w3.org/2000/svg"
 width="2048.000000pt" height="2048.000000pt" viewBox="0 0 2048.000000 2048.000000"
 preserveAspectRatio="xMidYMid meet">

<g transform="translate(0.000000,2048.000000) scale(0.100000,-0.100000)"
fill="#FF0000" stroke="none">
<path d="M9860 20470 c-1910 -74 -3720 -660 -5300 -1714 -573 -381 -1047 -772
-1556 -1281 -268 -268 -427 -441 -632 -687 -1333 -1605 -2141 -3554 -2326
-5618 -54 -593 -54 -1267 0 -1860 114 -1271 458 -2482 1030 -3630 423 -847
899 -1549 1548 -2280 247 -277 697 -714 1006 -976 878 -743 1910 -1352 2980
-1757 2179 -827 4611 -882 6820 -155 1234 406 2368 1034 3360 1862 258 216
413 358 685 631 478 478 832 901 1203 1441 277 401 496 774 725 1234 626 1253
972 2558 1058 3990 15 251 15 889 0 1140 -85 1419 -427 2717 -1042 3960 -421
851 -919 1588 -1563 2310 -154 173 -601 621 -776 776 -1756 1567 -3918 2468
-6250 2603 -251 15 -730 20 -970 11z m7790 -10215 l0 -1145 -7410 0 -7410 0 0
1145 0 1145 7410 0 7410 0 0 -1145z"/>
</g>
</svg>
