<?xml version="1.0" standalone="no"?>
<!DOCTYPE svg PUBLIC "-//W3C//DTD SVG 20010904//EN"
 "http://www.w3.org/TR/2001/REC-SVG-20010904/DTD/svg10.dtd">
<svg version="1.0" xmlns="http://www.w3.org/2000/svg"
 width="225.000000pt" height="225.000000pt" viewBox="0 0 225.000000 225.000000"
 preserveAspectRatio="xMidYMid meet">

<g transform="translate(0.000000,225.000000) scale(0.100000,-0.100000)"
fill="#ffffff" stroke="none">
<path d="M569 2046 c-87 -31 -149 -93 -177 -175 -7 -20 -12 -96 -12 -182 l0
-148 25 24 c18 19 35 25 65 25 30 0 47 -6 65 -25 l25 -24 0 134 c0 135 0 135
29 167 l29 33 507 0 507 0 29 -33 29 -32 0 -685 0 -685 -29 -32 -29 -33 -507
0 -507 0 -29 33 -29 32 0 166 c0 204 -11 233 -93 234 -27 0 -45 -7 -62 -25
-25 -24 -25 -25 -24 -217 0 -121 5 -205 12 -225 22 -60 72 -117 128 -148 l54
-30 550 0 550 0 54 30 c56 31 106 88 128 148 16 46 16 1458 0 1504 -22 60 -72
117 -128 148 l-54 30 -535 2 c-421 2 -543 0 -571 -11z"/>
<path d="M966 1564 c-19 -20 -26 -37 -26 -67 0 -38 7 -47 116 -156 l116 -116
-372 -5 -372 -5 -24 -28 c-32 -37 -32 -87 0 -124 l24 -28 372 -5 372 -5 -116
-116 c-109 -109 -116 -118 -116 -156 0 -56 37 -93 94 -93 39 0 46 5 248 208
133 133 209 217 214 235 3 15 1 40 -5 56 -7 15 -103 118 -215 229 -196 196
-203 202 -243 202 -30 0 -47 -7 -67 -26z"/>
</g>
</svg>
